<svg xmlns="http://www.w3.org/2000/svg" viewBox="0 0 54.26 75.89"><path d="M40.03,9.54c1.02,8.89,2.58,15.64,12.57,36.18.44.9,1.15,2.66,1.49,5.09.59,4.23-.36,8.46-2.37,12.66-1.84,3.85-4.71,7.49-9.72,10.65-1.01.63-2.15,1.22-3.45,1.77,2.54-4.47,2.96-9,2.28-13.53-.62-4.11-2.01-8.14-6.75-11.76-3.2-2.45-9.89-2.88-13.75-.07-4.03,2.93-5.38,6.24-6.45,9.62-1.65,5.2-.55,10.34,1.9,15.71-4.54-1.81-6.95-4-9.01-6.3C1.41,63.56-.56,57.24.13,50.77c.88-8.12,4.65-15.98,10.35-23.62,7.44-9.98,14.94-16.22,19.65-19.89,4.11-3.2,7.78-5.6,10.51-7.26-.77,4.23-.83,7.57-.6,9.54Z"/></svg>
